<?xml version="1.0" encoding="UTF-8" standalone="no"?>
<svg
   id="Calque_1"
   viewBox="0 0 306.44 93.24"
   version="1.1"
   sodipodi:docname="logo-simple.svg"
   inkscape:version="1.4.3 (0d15f75042, 2025-12-25)"
   xmlns:inkscape="http://www.inkscape.org/namespaces/inkscape"
   xmlns:sodipodi="http://sodipodi.sourceforge.net/DTD/sodipodi-0.dtd"
   xmlns="http://www.w3.org/2000/svg"
   xmlns:svg="http://www.w3.org/2000/svg">
  <sodipodi:namedview
     id="namedview10"
     pagecolor="#ffffff"
     bordercolor="#666666"
     borderopacity="1.0"
     inkscape:showpageshadow="2"
     inkscape:pageopacity="0.0"
     inkscape:pagecheckerboard="0"
     inkscape:deskcolor="#d1d1d1"
     inkscape:zoom="2.978262"
     inkscape:cx="122.89046"
     inkscape:cy="53.554724"
     inkscape:window-width="2252"
     inkscape:window-height="1452"
     inkscape:window-x="0"
     inkscape:window-y="24"
     inkscape:window-maximized="1"
     inkscape:current-layer="Calque_1" />
  <defs
     id="defs1">
    <style
       id="style1">.cls-1{fill:#00092a;}.cls-2{fill:#2454ff;}</style>
  </defs>
  <path
     class="cls-2"
     d="M69.78,36.14c-.17-.47-.81-.38-.84.13l-.11,1.68h0c.46,5.5-3.26,11.33-9.46,11.83-7.8.62-16.54-.79-24.26.15-5.44.66-8.74,4.53-9.2,10.14,0,.07-.01.17,0,.24l.02.54s.01.09.01.13v2.45s0,.03,0,.05c.43,5.11,2.72,9.11,7.35,10.98,5.93,2.39,17.6,2.45,22-3.25.71-.92,1.24-1.95,1.63-3.03.62-1.71-.53-3.55-2.23-3.55h-11.3c-.12,0-.24-.05-.32-.15-.76-.89-.19-1.93.6-1.93h14.33s0-.02,0-.02c4.43-.28,8.61-2.02,10.97-6.26,2.81-5.03,2.94-14.02.81-20.13ZM50.19,67.38c1.17,0,2.12.95,2.12,2.12s-.95,2.12-2.12,2.12-2.12-.95-2.12-2.12.95-2.12,2.12-2.12Z"
     id="path1" />
  <path
     class="cls-2"
     d="M29.26,43.88c7.8-.62,16.54.79,24.26-.15,5.44-.66,8.74-4.53,9.2-10.14,0-.07.01-.17,0-.24l-.02-.54s-.01-.09-.01-.13v-2.45s0-.03,0-.05c-.43-5.11-2.72-9.11-7.35-10.98-5.93-2.39-17.6-2.45-22,3.25-.71.92-1.24,1.95-1.63,3.03-.62,1.71.53,3.55,2.23,3.55h11.3c.12,0,.24.05.32.15.76.89.19,1.93-.6,1.93h-14.33s0,.02,0,.02c-4.43.28-8.61,2.02-10.97,6.26-2.81,5.03-2.94,14.02-.81,20.13.17.47.81.38.84-.13l.11-1.68h0c-.46-5.5,3.26-11.33,9.46-11.83ZM38.43,26.29c-1.17,0-2.12-.95-2.12-2.12s.95-2.12,2.12-2.12,2.12.95,2.12,2.12-.95,2.12-2.12,2.12Z"
     id="path2" />
  <path
     class="cls-1"
     d="M106.76,32.65c-3.7,0-6.67,1.58-9.17,3.37v-2.9h-2.64l-6.47,2.44v2.31c2.24.4,3.37,1.06,3.37,3.5v28.91c0,2.38-1.06,3.04-3.37,3.56v2.31h12.74v-2.31c-2.31-.46-3.37-1.25-3.37-3.7v-7.32c1.45.33,3.23.59,5.28.59,9.44,0,15.91-6.14,15.91-16.37,0-8.64-4.95-14.39-12.28-14.39ZM102.47,60.3c-1.65,0-3.3-.26-4.62-.73v-21.71c1.65-.72,3.63-1.32,5.54-1.32,5.48,0,9.17,4.29,9.17,11.48,0,7.85-4.03,12.28-10.1,12.28Z"
     id="path3"
     style="fill:#ffffff" />
  <path
     class="cls-1"
     d="M149.4,33.11h-9.83v2.38c2.31.13,3.23,1.39,2.31,3.83l-6.67,17.09-7.06-17.49c-.86-2.11.07-3.37,2.31-3.43v-2.38h-11.88v2.38c1.85.66,2.38,1.78,3.3,3.83l10.56,23.29-7.72,11.81v1.71h6.14l5.02-13.79,10.03-23.03c.79-1.85,1.72-3.1,3.5-3.83v-2.38Z"
     id="path4"
     style="fill:#ffffff" />
  <path
     class="cls-1"
     d="M165.37,59.31c-5.94,0-10.43-4.82-10.43-12.21,0-5.61,2.64-11.02,8.32-11.02,3.76,0,5.94,2.05,6.73,6.34h2.9v-7.52c-3.04-1.45-6.07-2.24-9.77-2.24-9.04,0-14.58,7.26-14.58,15.9s5.68,14.85,14.39,14.85c5.54,0,9.37-2.51,10.96-3.7l-.92-2.18c-2.11.92-5.02,1.78-7.59,1.78Z"
     id="path5"
     style="fill:#ffffff" />
  <path
     class="cls-1"
     d="M188.74,32.65c-8.12,0-14.19,6.27-14.19,15.64s5.81,15.11,14.06,15.11,14.52-6.47,14.52-15.57-6.53-15.18-14.39-15.18ZM188.93,60.1c-5.08,0-7.85-5.48-7.85-12.54s2.71-11.55,7.46-11.55c5.15,0,7.92,5.48,7.92,12.41s-2.51,11.68-7.52,11.68Z"
     id="path6"
     style="fill:#ffffff" />
  <path
     class="cls-1"
     d="M234.67,57.07v-13.07c0-7.13-3.23-11.35-9.17-11.35-4.55,0-8.05,2.11-11.02,4.42v-3.96h-2.71l-6.47,2.44v2.31c2.24.4,3.37,1.06,3.37,3.5v15.71c0,2.38-1.06,3.04-3.37,3.56v2.31h12.67v-2.31c-2.18-.4-3.23-1.12-3.23-3.63v-17.95c2.05-1.06,4.49-1.85,7.52-1.85,4.22,0,6.4,2.18,6.4,7.72v12.08c0,2.51-1.12,3.23-3.3,3.63v2.31h12.67v-2.31c-2.31-.53-3.37-1.19-3.37-3.56Z"
     id="path7"
     style="fill:#ffffff" />
  <path
     class="cls-1"
     d="M244.5,58.38c-1.4,0-2.42,1.09-2.42,2.38s1.01,2.38,2.42,2.38,2.42-1.05,2.42-2.38-.98-2.38-2.42-2.38Z"
     id="path8"
     style="fill:#ffffff" />
  <path
     class="cls-1"
     d="M262.02,26.84c0-3.76,1.72-6.47,4.55-6.47,3.04,0,4.22,2.11,4.82,4.95h2.77v-6.6c-1.98-.79-4.49-1.52-7.85-1.52-6.2,0-10.29,4.22-10.29,10.82v4.95l-5.02,1.25v2.11h5.02v20.72c0,2.38-1.12,3.04-3.37,3.56v2.31h13.59v-2.31c-2.57-.46-4.22-1.25-4.22-3.7v-20.59h8.12v-3.23h-8.12v-6.27Z"
     id="path9"
     style="fill:#ffffff" />
  <path
     class="cls-1"
     d="M279.91,36.41v-3.3h-2.71l-6.47,2.44v2.31c2.24.4,3.37,1.06,3.37,3.5v15.71c0,2.38-1.06,3.04-3.37,3.56v2.31h12.8v-2.31c-2.18-.4-3.37-1.12-3.37-3.63v-18.87l7.72,1.52h1.45v-7c-3.3.26-6.86,2.05-9.44,3.76Z"
     id="path10"
     style="fill:#ffffff" />
</svg>
